<svg id="Layer_1" data-name="Layer 1" xmlns="http://www.w3.org/2000/svg" width="150" height="70" viewBox="0 0 150 70">
  <defs>
    <style>
      .cls-1 {
        fill: #06377b;
      }

      .cls-2 {
        fill: #ed1c24;
      }
    </style>
  </defs>
  <g>
    <path class="cls-1" d="M107.1,31.1h-1.6v1.2c0,.7-.1,1.2-.1,1.8v8.4h3.4V31.1Zm-25.3,0v2.3c0,.7-.1,1.4-.1,2.1l-1.1.2H76.1c-1.3,0-1.6-.2-1.6-1.5V31.1H69.7V42.5h4.8V39c0-1,.2-1.2,1.2-1.3h3.9c1.9,0,2.1.2,2.1,2.1v2.7h5.1V31.1Z"/>
    <path class="cls-1" d="M148.2,39.9c-1.2-2.5-2.4-5-3.5-7.5-.5-.9-1-1.5-2.2-1.4a46.9,46.9,0,0,1-5.3,0,2.4,2.4,0,0,0-2.6,1.6l-4.2,8.9-.3.7a27.5,27.5,0,0,1-.2-4V33.1c0-1.5-.6-2.1-2.1-2.1h-6.6l-3.8,7.2L113.3,31c-1.6,0-3.1-.1-4.7,0h.3V42.5h1.8V35.6h.2c1.5,2.3,2.9,4.6,4.3,6.9h5l4.3-6.9h.2v6.9h10.4l.9-1.9h7.4l.9,1.9h5.1C148.9,41.6,148.6,40.8,148.2,39.9Zm-11.3-1.2,2.8-5.9,2.7,5.9Z"/>
    <path class="cls-2" d="M86.8,31.1h-.6l.5-.6a11.8,11.8,0,0,1,5.1-4.3,11.3,11.3,0,0,1,7.9-.2,11.1,11.1,0,0,1,5.4,3.9l.8,1v.2h-.5V32a10.5,10.5,0,0,0-8.4-5.7,10.3,10.3,0,0,0-9.9,4.9,2.8,2.8,0,0,0-.4,1.2"/>
    <path class="cls-1" d="M.1,33.5c0-.1.1-.2.1-.3.3-1.6.9-2.1,2.4-2.1,3.6-.1,7.1,0,10.6,0a3.3,3.3,0,0,1,1.5.3,2.2,2.2,0,0,1,1.7,2.1,23.5,23.5,0,0,1-.1,2.6,2,2,0,0,1-1.7,1.8,15.5,15.5,0,0,1-3.7.4H5.3v4.1H.1Zm5.2,2.6h5c.9,0,1.3-.5,1.3-1.4s-.4-1.4-1.3-1.4h-5v2.8Z"/>
    <path class="cls-1" d="M39.6,42.5H34.8V31.1h4.8v3.8c0,.5-.1,1.1.5,1.4s1.2-.1,1.6-.6l4.4-4.6h6.5l-5.4,5.8,5.4,5.6H46l-2.4-2.4A31.9,31.9,0,0,0,41,37.5a1.9,1.9,0,0,0-1-.3c-.2,0-.4.6-.4.9Z"/>
    <path class="cls-1" d="M52.4,38.8h4.7v.3c.2,1.3.7,1.8,2,1.8h3.4c1,0,1.4-.4,1.4-1.4S63.6,38,62.6,38H55.4a2.8,2.8,0,0,1-2.7-1.8,3.5,3.5,0,0,1,.6-3.9,3.6,3.6,0,0,1,2.6-1.1c3.2,0,6.4-.1,9.5,0s3.5,1.7,3.1,4.1H63.7c0-.1-.1-.1-.1-.2-.1-1.9-.5-1.8-2.1-1.8H58.9c-1,0-1.4.4-1.4,1.3s.3,1.3,1.4,1.3h6.8a3.5,3.5,0,0,1,3.5,3.5c0,.2-.1.5-.1.7a3,3,0,0,1-2.5,2.4,16.2,16.2,0,0,1-2.2,0H55.7C53.4,42.6,52.4,40.8,52.4,38.8Z"/>
    <path class="cls-1" d="M20.4,40.6l-.9,1.9H14.4l.3-.7L19,32.7A2.4,2.4,0,0,1,21.6,31a56.1,56.1,0,0,0,5.8,0,1.4,1.4,0,0,1,1.4.9c.1.3.3.5.4.8l4.2,9,.4.8H28.7l-.9-1.9ZM24.2,33H24c-.9,1.8-1.7,3.7-2.6,5.6h5.4Z"/>
    <path class="cls-2" d="M96.1,44.2a7.3,7.3,0,0,1-7.4-7.3h0a7.4,7.4,0,1,1,14.8,0,7.4,7.4,0,0,1-7.4,7.4Z"/>
    <rect class="cls-1" x="83.4" y="31.1" width="3.4" height="11.4"/>
    <rect class="cls-1" x="105.5" y="31.1" width="3.4" height="11.4"/>
    <path class="cls-2" d="M105.5,41.2l-.3.9a10.5,10.5,0,0,1-18,.2,2.8,2.8,0,0,1-.4-1.2v1.4h-.5l.5.7a10.9,10.9,0,0,0,6.5,4.6,12.5,12.5,0,0,0,5.1.1l1.6-.5a9,9,0,0,0,2.9-1.6,1,1,0,0,0,.5-.4,11.9,11.9,0,0,0,2.2-2.3l.3-.6h-.4V41.2Z"/>
  </g>
</svg>
