<svg id="Layer_1" data-name="Layer 1" xmlns="http://www.w3.org/2000/svg" width="150" height="70" viewBox="0 0 150 70">
  <defs>
    <style>
      .cls-1 {
        fill: #112375;
      }
    </style>
  </defs>
  <path class="cls-1" d="M129.2,46.9a2.2,2.2,0,0,0,1.3-2.2V32.9a.5.5,0,0,1,.4-.6l3.5-1.7.4-.2v4.2l.3-.2a10.9,10.9,0,0,0,2.1-2.7,4.3,4.3,0,0,0-.5-4.7,13.2,13.2,0,0,0-3.6-2.6,37.9,37.9,0,0,0-7.4-2.5,73.4,73.4,0,0,0-9.2-1.5l-6.5-.6c-4.6-.3-9.2-.4-13.7-.3l-8.3.2-5.8.4-7.9.8c-2.5.2-5,.5-7.4.9L56.2,23.5c-4.6.9-9.1,1.9-13.6,3.1a88.6,88.6,0,0,0-15.9,5.7,31.6,31.6,0,0,0-6.8,4.1,10.3,10.3,0,0,0-2.4,2.7,4.3,4.3,0,0,0,.5,5.7,13.9,13.9,0,0,0,4.5,3.1,41.7,41.7,0,0,0,9.8,3.2l4.7.6h.4c.6,0,.8-.2.8-.8a2.2,2.2,0,0,0,.1-.8V32.9c0-.3,0-.4.3-.6l3.9-1.9a.8.8,0,0,1,.1.4V45.9c0,.5,0,.5.4.5h1.9c.4,0,.5-.2.6-.6a1.7,1.7,0,0,0,.1-.7V41.7c0-.1,0-.3.2-.3l3.9-2h.1v4.7a4.6,4.6,0,0,1-.3,2.3h2.8c.4,0,.6-.2.6-.5a1.9,1.9,0,0,0,.1-.8V39.7a.5.5,0,0,1,.3-.5L57,37.4h.3v8.6a.6.6,0,0,0,.6.5h1.8a.5.5,0,0,0,.5-.5,1.9,1.9,0,0,0,.1-.8V41.6c0-.1,0-.2.1-.2l4.1-2v.2c0,1.7.1,3.5,0,5.2a7.7,7.7,0,0,1-.2,1.5h1.4c.9,0,1.1-.1,1.1-1V41.8c-.1-.3,0-.5.3-.5L71,39.4v.2c0,1.7.1,3.3,0,4.9a11,11,0,0,1-.2,1.8h1.9a.4.4,0,0,0,.4-.4,1.5,1.5,0,0,0,.1-.7V41.7c0-.1.1-.3.2-.3l4.1-2v5.3a5.1,5.1,0,0,1-.2,1.3,1.3,1.3,0,0,1-1.2.9H42.6v.4c0,1.2,0,2.4-.1,3.6a2.9,2.9,0,0,1-.2.9A1.4,1.4,0,0,1,41,52.9H38.2l-4.4-.3a52.6,52.6,0,0,1-15-4.3A14.2,14.2,0,0,1,14.3,45a4.8,4.8,0,0,1-.5-6.4A14.1,14.1,0,0,1,17.5,35a45.5,45.5,0,0,1,8.7-4.7,101.1,101.1,0,0,1,13.4-4.7q7.4-2.1,15-3.6,4.9-1,9.9-1.8l9.2-1.3,8.4-.8c2.5-.3,5-.4,7.5-.6l8.8-.3h7.1l5.4.2,7.2.5c2.7.3,5.4.7,8,1.2a39.1,39.1,0,0,1,9.4,2.8,14.2,14.2,0,0,1,3.3,2.1,5.5,5.5,0,0,1,1.8,3.1,5.2,5.2,0,0,1-.5,2.7,11.2,11.2,0,0,1-2.8,3.3l-2.2,1.6a.9.9,0,0,0-.3.6v9.5a5,5,0,0,1-.2,1.2,1.3,1.3,0,0,1-1.2.9Z"/>
  <path class="cls-1" d="M111.9,37.8v.4c-.1,2.3-.1,4.6-.1,6.9a1.7,1.7,0,0,0,.1.7.5.5,0,0,0,.6.6h3.7c.7,0,.9-.2.9-.9V38.8a2.5,2.5,0,0,0-.1-.8c-.1-.3-.2-.4-.6-.4h-3.8a2,2,0,0,1,1.2-.6h5.7c1.2,0,1.8.6,1.8,1.9V45a8.9,8.9,0,0,1-.3,1.4h1.6a.8.8,0,0,0,.5-.5v-13a.6.6,0,0,1,.3-.6l3.7-1.7h.3V44.6a5.1,5.1,0,0,1-.2,1.3,1.4,1.4,0,0,1-1.4,1H105.1v2.7c0,.3-.1.5-.1.7a1.4,1.4,0,0,1-1.5,1.2H98.3a1,1,0,0,1,.9-.6h1.1a.5.5,0,0,0,.5-.5c0-.1.1-.4.1-.6,0-2.6-.1-5.3-.1-8a.5.5,0,0,1,.3-.5l3.7-1.8h.3v6.9a13.4,13.4,0,0,0,2,0c.3,0,.4-.3.4-.5s.1-.5.1-.8,0-3.2-.1-4.9.1-.3.3-.4l3.7-1.8Z"/>
  <path class="cls-1" d="M91,51.5c.3-.4.6-.7,1-.6h.8c.4,0,.6-.2.6-.5s.1-.4.1-.6V40.7c-.1-.6-.2-.8-.8-.8h-.6a.7.7,0,0,0-.7.6v4.2a4.3,4.3,0,0,0,.2,1.1,1.8,1.8,0,0,0,1,1.1H88.8a1.4,1.4,0,0,1-1.6-1.4,2.5,2.5,0,0,1-.1-.8V41.5a2.8,2.8,0,0,1,.3-1.3,1.1,1.1,0,0,1,1.2-.8h7.7c.8,0,1.3.6,1.4,1.5a2.2,2.2,0,0,1,.1.8v7.4a4.9,4.9,0,0,1-.1,1.2,1.4,1.4,0,0,1-1.4,1.2H91Z"/>
  <path class="cls-1" d="M84.6,30.4v14a6.6,6.6,0,0,1-.1,1.4A1.4,1.4,0,0,1,83,46.9H79.2a2.7,2.7,0,0,0,1.2-2.4V32.9c0-.3,0-.5.3-.6l3.6-1.7Z"/>
  <path class="cls-1" d="M111.8,37V34.8l.3-.3,5.6-2.7,2.6-1.2.6-.2h4.6Z"/>
  <path class="cls-1" d="M107.9,32c.5-1.2,1.4-1.8,2.3-1.6a2,2,0,0,1,0,3.9,2,2,0,0,1-2.3-1.6,2.4,2.4,0,0,1-1,1.4,1.8,1.8,0,0,1-1.6.1,1.8,1.8,0,0,1-1.3-2,2.1,2.1,0,0,1,1.6-1.8,1.7,1.7,0,0,1,1.4.3A2,2,0,0,1,107.9,32Z"/>
  <path class="cls-1" d="M53.3,32.7a1.9,1.9,0,0,1-3.8-.5,2,2,0,0,1,1.7-1.8,1.9,1.9,0,0,1,2.1,1.7,2,2,0,0,1,1.1-1.4,1.5,1.5,0,0,1,1.6-.1,1.8,1.8,0,0,1,1.2,2.1,1.9,1.9,0,0,1-1.6,1.6A2,2,0,0,1,53.3,32.7Z"/>
  <path class="cls-1" d="M48.8,49.8c-.2.8-.5,1.3-1.2,1.5a1.3,1.3,0,0,1-1.2.1,1.9,1.9,0,0,1-1.5-1.9,1.8,1.8,0,0,1,1.5-1.8c1-.3,1.7.2,2.4,1.5a2.6,2.6,0,0,1,1-1.3,1.8,1.8,0,0,1,1.6-.2,2,2,0,0,1,1.3,2.2,1.9,1.9,0,0,1-1.8,1.6C50,51.6,49.3,51,48.8,49.8Z"/>
</svg>
