<?xml version="1.0" encoding="UTF-8"?>
<!DOCTYPE svg PUBLIC "-//W3C//DTD SVG 1.1//EN" "http://www.w3.org/Graphics/SVG/1.1/DTD/svg11.dtd">
<!-- Creator: CorelDRAW 2020 (64-Bit) -->
<svg xmlns="http://www.w3.org/2000/svg" xml:space="preserve" width="350px" height="69px" version="1.1" style="shape-rendering:geometricPrecision; text-rendering:geometricPrecision; image-rendering:optimizeQuality; fill-rule:evenodd; clip-rule:evenodd"
viewBox="0 0 687.91 136.03"
 xmlns:xlink="http://www.w3.org/1999/xlink"
 xmlns:xodm="http://www.corel.com/coreldraw/odm/2003">
 <defs>
  <style type="text/css">
   <![CDATA[
    .fil0 {fill:white;fill-rule:nonzero}
   ]]>
  </style>
 </defs>
 <g id="Layer_x0020_1">
  <metadata id="CorelCorpID_0Corel-Layer"/>
  <path class="fil0" d="M40.79 81.58l52.47 0c7.51,0 13.6,-6.09 13.6,-13.6 0,-7.51 -6.09,-13.59 -13.6,-13.59l-66.07 0c-15.02,0 -27.19,12.17 -27.19,27.19l0 27.19c0,15.02 12.17,27.2 27.19,27.2l66.07 0c7.51,0 13.6,-6.09 13.6,-13.6 0,-7.51 -6.09,-13.6 -13.6,-13.6l-52.47 0c-7.51,0 -13.6,-6.08 -13.6,-13.59 0,-7.51 6.09,-13.6 13.6,-13.6z"/>
  <path class="fil0" d="M93.26 0l-17.16 0 -0.57 0 -28.07 0 -13.65 0 -19.85 0c-0.38,0 -0.75,0.01 -1.12,0.02 -17.58,0.72 -16.77,27.17 0.82,27.17l20.15 0 2.11 0 23.89 0 16.29 0 17.16 0c7.51,0 13.6,-6.08 13.6,-13.59 0,-7.51 -6.09,-13.6 -13.6,-13.6z"/>
  <path class="fil0" d="M134.09 14.42l0 25.78c0,7.9 6.42,14.32 14.32,14.32l49.35 0 0 -11.97 -49.35 0c-1.29,0 -2.35,-1.05 -2.35,-2.35l0 -6.9 51.7 0 0 -11.97 -51.7 0 0 -6.91c0,-1.33 1.06,-2.41 2.35,-2.41l49.35 0 0 -11.91 -49.35 0c-7.9,0 -14.32,6.43 -14.32,14.32z"/>
  <path class="fil0" d="M256.59 40.48l-35.14 -37.02c-1.76,-2.04 -4.61,-3.36 -7.27,-3.36l-3.29 0c-4.23,0 -7.67,3.41 -7.67,7.6l0 46.82 11.98 0 0 -40.37 35.1 37.06c1.76,2.01 4.6,3.31 7.24,3.31l3.36 0c4.19,0 7.6,-3.44 7.6,-7.66l0 -46.76 -11.91 0 0 40.38z"/>
  <polygon class="fil0" points="273.96,12.01 300.65,12.01 300.65,54.52 312.63,54.52 312.63,12.01 339.24,12.01 339.24,0.1 273.96,0.1 "/>
  <path class="fil0" d="M344.71 14.42l0 25.78c0,7.9 6.42,14.32 14.32,14.32l49.34 0 0 -11.97 -49.34 0c-1.3,0 -2.35,-1.05 -2.35,-2.35l0 -6.9 51.69 0 0 -11.97 -51.69 0 0 -6.91c0,-1.33 1.05,-2.41 2.35,-2.41l49.34 0 0 -11.91 -49.34 0c-7.9,0 -14.32,6.43 -14.32,14.32z"/>
  <path class="fil0" d="M453.65 27.31l29.18 -26.37 0 52.75 -29.18 -26.38zm82.56 -5.98l-41.4 0 0 -21.23 -11.05 0 -0.93 0 -16.92 0 -22.9 20.6 -0.23 0.22c-0.15,0.11 -0.32,0.21 -0.5,0.3 -0.22,0.07 -0.47,0.11 -0.74,0.11l-15.73 0 0 -21.23 -11.97 0 0 54.42 11.97 0 0 -21.22 15.73 0c0.27,0 0.52,0.04 0.75,0.11 0.53,0.27 0.77,0.44 0.78,0.44l22.77 20.67 16.99 0 0.93 0 11.05 0 0 -21.22 41.4 0 0 21.22 11.9 0 0 -54.42 -11.9 0 0 21.23z"/>
  <path class="fil0" d="M606.95 14.42l0 6.91 -41.4 0 0 -6.91c0,-1.33 1.05,-2.41 2.35,-2.41l36.7 0c1.3,0 2.35,1.08 2.35,2.41zm-2.35 -14.32l-36.7 0c-7.9,0 -14.32,6.43 -14.32,14.32l0 40.1 11.97 0 0 -21.22 41.4 0 0 21.22 11.91 0 0 -40.1c0,-7.89 -6.4,-14.32 -14.26,-14.32z"/>
  <path class="fil0" d="M134.09 95.93l0 25.78c0,7.89 6.42,14.32 14.32,14.32l49.35 0 0 -11.97 -49.35 0c-1.29,0 -2.35,-1.06 -2.35,-2.35l0 -25.78c0,-1.33 1.06,-2.42 2.35,-2.42l49.35 0 0 -11.9 -49.35 0c-7.9,0 -14.32,6.42 -14.32,14.32z"/>
  <path class="fil0" d="M203.22 95.93l0 25.78c0,7.89 6.43,14.32 14.32,14.32l49.35 0 0 -11.97 -49.35 0c-1.29,0 -2.34,-1.06 -2.34,-2.35l0 -6.9 51.69 0 0 -11.98 -51.69 0 0 -6.9c0,-1.33 1.05,-2.42 2.34,-2.42l49.35 0 0 -11.9 -49.35 0c-7.89,0 -14.32,6.42 -14.32,14.32z"/>
  <path class="fil0" d="M325.73 121.99l-35.15 -37.03c-1.76,-2.03 -4.61,-3.35 -7.27,-3.35l-3.29 0c-4.23,0 -7.67,3.41 -7.67,7.6l0 46.82 11.97 0 0 -40.38 35.11 37.07c1.77,2.01 4.6,3.31 7.24,3.31l3.36 0c4.19,0 7.6,-3.44 7.6,-7.67l0 -46.75 -11.9 0 0 40.38z"/>
  <polygon class="fil0" points="343.1,93.51 369.78,93.51 369.78,136.03 381.76,136.03 381.76,93.51 408.37,93.51 408.37,81.61 343.1,81.61 "/>
  <path class="fil0" d="M413.84 95.93l0 25.78c0,7.89 6.42,14.32 14.32,14.32l49.35 0 0 -11.97 -49.35 0c-1.29,0 -2.35,-1.06 -2.35,-2.35l0 -6.9 51.7 0 0 -11.98 -51.7 0 0 -6.9c0,-1.33 1.06,-2.42 2.35,-2.42l49.35 0 0 -11.9 -49.35 0c-7.9,0 -14.32,6.42 -14.32,14.32z"/>
  <path class="fil0" d="M494.94 93.51l39.06 0c1.29,0 2.35,1.09 2.35,2.42l0 4.55c0,1.3 -1.06,2.35 -2.35,2.35l-39.06 0 0 -9.32zm53.31 2.42c0,-7.9 -6.39,-14.32 -14.25,-14.32l-51.03 0 0 54.42 11.97 0 0 -21.22 39.06 0c1.29,0 2.35,1.05 2.35,2.34l0 18.88 11.9 0 0 -18.88c0,-3.01 -0.93,-5.91 -2.66,-8.33 1.73,-2.42 2.66,-5.32 2.66,-8.34l0 -4.55z"/>
  <path class="fil0" d="M687.91 14.42l0 25.78c0,7.9 -6.42,14.32 -14.32,14.32l-49.35 0 0 -0.47 0 -11.5 0 -9.25 0 -11.97 0 -9.32 0 -10.11 0 -1.8 49.35 0c7.9,0 14.32,6.43 14.32,14.32zm-51.6 28.13l37.28 0c1.29,0 2.35,-1.05 2.35,-2.35l0 -6.9 -39.63 0 0 9.25zm0 -21.22l39.63 0 0 -6.91c0,-1.33 -1.06,-2.41 -2.35,-2.41l-37.28 0 0 9.32z"/>
 </g>
</svg>
